<svg version="1.1" id="Layer_1" xmlns="http://www.w3.org/2000/svg" xmlns:xlink="http://www.w3.org/1999/xlink" x="0px" y="0px" width="100%" viewBox="0 0 511 511" enable-background="new 0 0 511 511" xml:space="preserve">
<path fill="#BFC7D4" opacity="1.000000" stroke="none" d="
M225.705170,1.242225 
	C246.020889,1.000000 266.041779,1.000000 286.531342,1.000000 
	C289.855530,3.035165 293.153961,1.823008 296.223083,2.153704 
	C318.138672,4.515102 338.838837,11.276163 358.950562,19.816107 
	C386.476868,31.504444 411.037964,47.770691 432.897064,68.315018 
	C473.156067,106.152565 498.329285,152.229080 509.548248,206.131958 
	C510.800415,212.148026 510.543884,218.350876 511.757812,224.705383 
	C512.000000,245.687561 512.000000,266.375122 512.000000,287.531342 
	C510.071106,292.383087 511.004395,297.127197 510.281952,301.675629 
	C505.950958,328.943115 496.606384,354.464844 483.757538,378.789642 
	C471.998993,401.050293 457.181274,421.173828 439.372894,438.842896 
	C404.776611,473.168579 363.740387,496.217926 316.130096,507.461548 
	C306.677979,509.693787 297.131622,510.382874 287.294769,511.757812 
	C266.979095,512.000000 246.958206,512.000000 226.468658,512.000000 
	C221.278290,510.025360 216.203278,511.027161 211.329483,510.257782 
	C191.640366,507.149536 172.761993,501.331573 154.470871,493.502625 
	C127.575897,481.991058 103.438194,466.316071 81.889694,446.462189 
	C40.575394,408.396790 14.919996,361.643463 3.447875,306.872437 
	C2.187127,300.853302 2.620232,294.632965 1.242213,288.294739 
	C1.000000,267.645782 1.000000,247.291550 1.000000,226.468658 
	C2.974717,221.280136 2.004773,216.210678 2.735124,211.334427 
	C5.740440,191.269058 11.978466,172.183868 19.938780,153.602982 
	C32.684013,123.853210 50.592262,97.506905 73.460854,74.729050 
	C111.808678,36.533352 157.575165,12.191623 211.081863,2.820597 
	C215.831421,1.988772 220.684738,2.460283 225.705170,1.242225 
z" data-index="0" style="opacity: 1;"></path>

<path fill="#000000" opacity="1.000000" stroke="none" d="
M512.000000,224.531342 
	C509.776642,225.948135 510.148285,224.088654 510.032104,223.051849 
	C506.579803,192.240158 496.891632,163.356216 482.452728,136.085205 
	C474.072479,120.257309 464.054138,105.474808 452.398895,91.739975 
	C436.917816,73.496696 419.428375,57.614426 399.673187,44.205055 
	C381.929382,32.161003 362.853729,22.598856 342.692719,15.411345 
	C326.993256,9.814399 310.709930,6.162942 294.338989,3.009130 
	C291.677429,2.496384 288.642853,4.244070 286.660767,1.342561 
	C360.594849,1.000000 434.189728,1.035612 507.784302,0.895038 
	C511.471619,0.887995 512.097473,1.755529 512.091553,5.276373 
	C511.969910,78.204987 512.000000,151.133865 512.000000,224.531342 
z" data-index="2" style="opacity: 1; visibility: hidden;"></path>

<path fill="#000000" opacity="1.000000" stroke="none" d="
M287.468658,512.000000 
	C285.945984,509.748108 287.823914,510.137970 288.883270,510.029419 
	C320.895447,506.748566 350.717529,496.459015 378.969818,481.449677 
	C393.740662,473.602478 407.352081,463.987274 420.314423,453.337036 
	C440.106873,437.074921 456.759186,418.105560 470.693695,396.740112 
	C487.616364,370.793030 499.793701,342.808258 506.095001,312.343506 
	C507.675537,304.702271 509.680878,297.167053 510.086456,289.326233 
	C510.122101,288.637299 510.895905,287.986572 511.663452,287.659058 
	C512.000000,361.261841 511.964050,434.523712 512.105103,507.785278 
	C512.112244,511.475281 511.240845,512.097229 507.722656,512.091309 
	C434.461029,511.970154 361.199158,512.000000 287.468658,512.000000 
z" data-index="4" style="opacity: 1; visibility: hidden;"></path>
</svg>